<svg xmlns="http://www.w3.org/2000/svg" version="1.1" xmlns:xlink="http://www.w3.org/1999/xlink" xmlns:svgjs="http://svgjs.dev/svgjs" width="1000" height="353" viewBox="0 0 1000 353"><g transform="matrix(1,0,0,1,-0.6060606060606233,0.3168955976342147)"><svg viewBox="0 0 396 140" data-background-color="#ffffff" preserveAspectRatio="xMidYMid meet" height="353" width="1000" xmlns="http://www.w3.org/2000/svg" xmlns:xlink="http://www.w3.org/1999/xlink"><defs></defs><g id="tight-bounds" transform="matrix(1,0,0,1,0.2400000000000091,-0.12568097356597718)"><svg viewBox="0 0 395.52 140.25136194713195" height="140.25136194713195" width="395.52"><g><svg viewBox="0 0 689.3158837462324 244.43135999999996" height="140.25136194713195" width="395.52"><g transform="matrix(1,0,0,1,293.7958837462325,17.66349395348837)"><svg viewBox="0 0 395.52 209.10437209302322" height="209.10437209302322" width="395.52"><g><svg viewBox="0 0 395.52 209.10437209302322" height="209.10437209302322" width="395.52"><g><svg viewBox="0 0 395.52 209.10437209302322" height="209.10437209302322" width="395.52"><g transform="matrix(1,0,0,1,0,0)"><svg width="395.52" viewBox="1.25 -33.95000076293945 64.5 34.10000228881836" height="209.10437209302322" data-palette-color="#000000"><path d="M20.45-31.35L10.35-31.35Q8.05-31.35 6.83-30.6 5.6-29.85 5.03-28.48 4.45-27.1 4.1-25.2L4.1-25.2Q3.4-25.2 2.6-25.3 1.8-25.4 1.25-25.7L1.25-25.7Q1.65-27.8 1.88-30 2.1-32.2 2.1-33.95L2.1-33.95Q3.65-33.9 5.68-33.85 7.7-33.8 10.13-33.8 12.55-33.8 15.3-33.8L15.3-33.8Q18.05-33.8 20.5-33.8 22.95-33.8 25.03-33.85 27.1-33.9 28.55-33.95L28.55-33.95Q28.5-32.1 28.63-30.1 28.75-28.1 29-25.7L29-25.7Q28.4-25.45 27.68-25.3 26.95-25.15 26.1-25.2L26.1-25.2Q25.95-28.25 24.63-29.8 23.3-31.35 20.45-31.35L20.45-31.35ZM12.5-6.8L12.5-32.4 18.05-32.4 18.05-6.8Q18.05-5.05 18.35-4.1 18.65-3.15 19.53-2.75 20.4-2.35 22.1-2.25L22.1-2.25Q22.25-1.85 22.33-1.23 22.4-0.6 22.4 0.15L22.4 0.15Q20.8 0.05 19 0.03 17.2 0 15.35 0L15.35 0Q14.1 0 12.78 0.03 11.45 0.05 10.23 0.08 9 0.1 8 0.15L8 0.15Q8-0.6 8.08-1.23 8.15-1.85 8.3-2.25L8.3-2.25Q10-2.35 10.9-2.75 11.8-3.15 12.15-4.1 12.5-5.05 12.5-6.8L12.5-6.8ZM52.8 0.15L52.8 0.15Q52.8-0.6 52.87-1.23 52.95-1.85 53.1-2.25L53.1-2.25Q54.45-2.35 55.2-2.75 55.95-3.15 56.22-4.1 56.5-5.05 56.5-6.8L56.5-6.8 56.5-27Q56.5-28.8 56.22-29.73 55.95-30.65 55.2-31.05 54.45-31.45 53.1-31.55L53.1-31.55Q52.95-32 52.87-32.63 52.8-33.25 52.8-33.95L52.8-33.95Q53.75-33.9 54.82-33.88 55.9-33.85 57.07-33.83 58.25-33.8 59.3-33.8L59.3-33.8Q60.45-33.8 61.52-33.83 62.6-33.85 63.67-33.88 64.75-33.9 65.75-33.95L65.75-33.95Q65.75-33.25 65.7-32.63 65.65-32 65.45-31.55L65.45-31.55Q64.15-31.45 63.37-31.05 62.6-30.65 62.32-29.73 62.05-28.8 62.05-27L62.05-27 62.05-6.8Q62.05-5.05 62.35-4.1 62.65-3.15 63.4-2.75 64.15-2.35 65.45-2.25L65.45-2.25Q65.6-1.85 65.67-1.23 65.75-0.6 65.75 0.15L65.75 0.15Q64.3 0.05 62.65 0.03 61 0 59.4 0L59.4 0Q57.75 0 55.97 0.03 54.2 0.05 52.8 0.15ZM32.9 0.15L32.9 0.15Q32.9-0.6 32.97-1.23 33.05-1.85 33.2-2.25L33.2-2.25Q34.55-2.35 35.27-2.75 36-3.15 36.3-4.1 36.6-5.05 36.6-6.8L36.6-6.8 36.6-27Q36.6-28.8 36.3-29.73 36-30.65 35.27-31.05 34.55-31.45 33.2-31.55L33.2-31.55Q33-32 32.95-32.63 32.9-33.25 32.9-33.95L32.9-33.95Q33.85-33.9 34.92-33.88 36-33.85 37.17-33.83 38.35-33.8 39.4-33.8L39.4-33.8Q40.5-33.8 41.6-33.83 42.7-33.85 43.75-33.88 44.8-33.9 45.8-33.95L45.8-33.95Q45.8-33.25 45.75-32.63 45.7-32 45.55-31.55L45.55-31.55Q44.25-31.45 43.47-31.05 42.7-30.65 42.4-29.73 42.1-28.8 42.1-27L42.1-27 42.1-6.8Q42.1-5.05 42.4-4.1 42.7-3.15 43.47-2.75 44.25-2.35 45.55-2.25L45.55-2.25Q45.7-1.85 45.75-1.23 45.8-0.6 45.8 0.15L45.8 0.15Q44.4 0.05 42.75 0.03 41.1 0 39.5 0L39.5 0Q37.85 0 36.05 0.03 34.25 0.05 32.9 0.15ZM41.9-15.8L41.9-15.8 41.9-18.55 56.75-18.55 56.75-16.15Q55.4-16.15 53.4-16.15 51.4-16.15 49.27-16.1 47.15-16.05 45.2-15.98 43.25-15.9 41.9-15.8Z" opacity="1" transform="matrix(1,0,0,1,0,0)" fill="#000000" class="undefined-text-0" data-fill-palette-color="primary" id="text-0"></path></svg></g></svg></g></svg></g></svg></g><g><svg viewBox="0 0 244.43135999999996 244.43135999999996" height="244.43135999999996" width="244.43135999999996"><g><svg xmlns="http://www.w3.org/2000/svg" xmlns:xlink="http://www.w3.org/1999/xlink" version="1.1" x="0" y="0" viewBox="5 5 90 90" style="enable-background:new 0 0 100 100;" xml:space="preserve" height="244.43135999999996" width="244.43135999999996" class="icon-icon-0" data-fill-palette-color="accent" id="icon-0"><g fill="#000000" data-fill-palette-color="accent"><path d="M84 5H16C9.9 5 5 9.6 5 15.3V67c0 5.7 4.9 10.3 11 10.3h7.2v15.3c0 0.9 0.6 1.8 1.5 2.2 0.4 0.2 0.7 0.2 1.1 0.2 0.6 0 1.2-0.2 1.7-0.5l22.7-17.2H84c6.1 0 11-4.6 11-10.3V15.3C95 9.6 90.1 5 84 5zM89.9 66.9c0 3-2.6 5.4-5.8 5.4H49.2c-0.6 0-1.2 0.2-1.7 0.5L28.4 87.3V74.7c0-1.3-1.2-2.4-2.6-2.4h-9.8c-3.2 0-5.8-2.4-5.8-5.4V15.5c0-3 2.6-5.4 5.8-5.4h68.2c3.2 0 5.8 2.4 5.8 5.4V66.9z" fill="#000000" data-fill-palette-color="accent"></path><polygon points="23.5,31.5 32.3,31.5 32.3,55.5 38.5,55.5 38.5,31.5 47.2,31.5 47.2,26.3 23.5,26.3  " fill="#000000" data-fill-palette-color="accent"></polygon><polygon points="68.1,37.4 56.8,37.4 56.8,26.3 50.7,26.3 50.7,55.5 56.8,55.5 56.8,42.5 68.1,42.5 68.1,55.5 74.2,55.5 74.2,26.3    68.1,26.3  " fill="#000000" data-fill-palette-color="accent"></polygon></g></svg></g></svg></g></svg></g></svg><rect width="395.52" height="140.25136194713195" fill="none" stroke="none" visibility="hidden"></rect></g></svg></g></svg>